<?xml version="1.0" encoding="UTF-8" standalone="no"?>
<!DOCTYPE svg PUBLIC "-//W3C//DTD SVG 1.1//EN" "http://www.w3.org/Graphics/SVG/1.1/DTD/svg11.dtd">
<!-- Generated by graphviz version 2.40.1 (20161225.0304)
 -->
<!-- Title: %0 Pages: 1 -->
<svg width="394pt" height="188pt" viewBox="0.00 0.00 393.55 188.00" xmlns="http://www.w3.org/2000/svg" xmlns:xlink="http://www.w3.org/1999/xlink">
<g id="graph0" class="graph" transform="scale(1 1) rotate(0) translate(4 184)">
<title>%0</title>
<polygon fill="#ffffff" stroke="transparent" points="-4,4 -4,-184 389.5506,-184 389.5506,4 -4,4"/>
<!-- llist_c -->
<g id="node1" class="node">
<title>llist_c</title>
<ellipse fill="none" stroke="#000000" cx="82.1367" cy="-18" rx="63.1852" ry="18"/>
<text text-anchor="middle" x="82.1367" y="-13.8" font-family="Times,serif" font-size="14.00" fill="#000000">src/llist/llist.c</text>
</g>
<!-- llist_o -->
<g id="node2" class="node">
<title>llist_o</title>
<ellipse fill="none" stroke="#000000" cx="82.1367" cy="-90" rx="82.2737" ry="18"/>
<text text-anchor="middle" x="82.1367" y="-85.8" font-family="Times,serif" font-size="14.00" fill="#000000">obj/dbg/llist/llist.o</text>
</g>
<!-- llist_o&#45;&gt;llist_c -->
<g id="edge1" class="edge">
<title>llist_o-&gt;llist_c</title>
<path fill="none" stroke="#000000" d="M82.1367,-71.8314C82.1367,-64.131 82.1367,-54.9743 82.1367,-46.4166"/>
<polygon fill="#000000" stroke="#000000" points="85.6368,-46.4132 82.1367,-36.4133 78.6368,-46.4133 85.6368,-46.4132"/>
</g>
<!-- vector_c -->
<g id="node3" class="node">
<title>vector_c</title>
<ellipse fill="none" stroke="#000000" cx="284.1367" cy="-18" rx="82.7393" ry="18"/>
<text text-anchor="middle" x="284.1367" y="-13.8" font-family="Times,serif" font-size="14.00" fill="#000000">src/vector/vector.c</text>
</g>
<!-- vector_o -->
<g id="node4" class="node">
<title>vector_o</title>
<ellipse fill="none" stroke="#000000" cx="284.1367" cy="-90" rx="101.3279" ry="18"/>
<text text-anchor="middle" x="284.1367" y="-85.8" font-family="Times,serif" font-size="14.00" fill="#000000">obj/dbg/vector/vector.o</text>
</g>
<!-- vector_o&#45;&gt;vector_c -->
<g id="edge2" class="edge">
<title>vector_o-&gt;vector_c</title>
<path fill="none" stroke="#000000" d="M284.1367,-71.8314C284.1367,-64.131 284.1367,-54.9743 284.1367,-46.4166"/>
<polygon fill="#000000" stroke="#000000" points="287.6368,-46.4132 284.1367,-36.4133 280.6368,-46.4133 287.6368,-46.4132"/>
</g>
<!-- libds_a -->
<g id="node5" class="node">
<title>libds_a</title>
<ellipse fill="none" stroke="#000000" cx="120.1367" cy="-162" rx="51.5832" ry="18"/>
<text text-anchor="middle" x="120.1367" y="-157.8" font-family="Times,serif" font-size="14.00" fill="#000000">bin/libds.a</text>
</g>
<!-- libds_a&#45;&gt;llist_o -->
<g id="edge3" class="edge">
<title>libds_a-&gt;llist_o</title>
<path fill="none" stroke="#000000" d="M110.7435,-144.2022C106.4371,-136.0428 101.2372,-126.1904 96.4584,-117.1358"/>
<polygon fill="#000000" stroke="#000000" points="99.4489,-115.3033 91.6859,-108.0931 93.2582,-118.5707 99.4489,-115.3033"/>
</g>
<!-- libds_a&#45;&gt;vector_o -->
<g id="edge4" class="edge">
<title>libds_a-&gt;vector_o</title>
<path fill="none" stroke="#000000" d="M152.5379,-147.7751C176.5869,-137.217 209.7529,-122.6563 236.7723,-110.7941"/>
<polygon fill="#000000" stroke="#000000" points="238.2985,-113.9466 246.048,-106.7219 235.4846,-107.5371 238.2985,-113.9466"/>
</g>
<!-- libds_so -->
<g id="node6" class="node">
<title>libds_so</title>
<ellipse fill="none" stroke="#000000" cx="264.1367" cy="-162" rx="55.6783" ry="18"/>
<text text-anchor="middle" x="264.1367" y="-157.8" font-family="Times,serif" font-size="14.00" fill="#000000">bin/libds.so</text>
</g>
<!-- libds_so&#45;&gt;llist_o -->
<g id="edge5" class="edge">
<title>libds_so-&gt;llist_o</title>
<path fill="none" stroke="#000000" d="M228.6132,-147.9468C200.983,-137.0161 162.3186,-121.7203 131.6517,-109.5883"/>
<polygon fill="#000000" stroke="#000000" points="132.5864,-106.1942 122,-105.7701 130.0113,-112.7034 132.5864,-106.1942"/>
</g>
<!-- libds_so&#45;&gt;vector_o -->
<g id="edge6" class="edge">
<title>libds_so-&gt;vector_o</title>
<path fill="none" stroke="#000000" d="M269.1836,-143.8314C271.3461,-136.0463 273.922,-126.7729 276.3215,-118.1347"/>
<polygon fill="#000000" stroke="#000000" points="279.7177,-118.9852 279.0219,-108.4133 272.9731,-117.1117 279.7177,-118.9852"/>
</g>
</g>
</svg>